<svg xmlns="http://www.w3.org/2000/svg" viewBox="0 0 48 48" height="38" width="38" fill="darkred">
    <defs>
        <filter id="f4" x="0" y="0" width="200%" height="200%">
            <feOffset result="offOut" in="SourceGraphic" dx="15" dy="25" />
            <feGaussianBlur result="blurOut" in="matrixOut" stdDeviation="10" />
        </filter>
    </defs>
    <rect width="100" height="100" stroke="grey" stroke-width="20" fill="none" filter="url(#f4)" />
    <path d="M7.05 17.95q-.6 0-1.05-.475Q5.55 17 5.55 16.3q0-.7.45-1.15.45-.45 1.1-.45h7.45q1.5 0 2.375.975t1.125 2.275ZM11.3 40.6q-4.1 0-6.95-2.9-2.85-2.9-2.85-6.95 0-4.1 2.9-7 2.9-2.9 7-2.9 1.5 0 3.1.525t2.85 1.575h3.7q1.95 0 3.325-1.425Q25.75 20.1 25.75 18.1v-5.5l-2.45-2.35-3.05 3.05-1.15-1.1 7.3-7.3 1.1 1.15-3.1 3.05 2.45 2.45h13.6q1.55 0 2.575 1 1.025 1 1.025 2.6v13.1q1.1 1.05 1.775 2.425.675 1.375.675 2.875 0 3-2.075 5.05t-4.975 2.05q-2.9 0-5.025-2.05-2.125-2.05-2.125-4.9 0-.25.025-.65t.075-.65H21.15q-.6 3.6-3.325 5.9-2.725 2.3-6.525 2.3Zm.1-3.55q2.6 0 4.45-1.825t1.85-4.475q0-2.6-1.85-4.45t-4.45-1.85q-2.6 0-4.45 1.825T5.1 30.75q0 2.6 1.825 4.45t4.475 1.85Zm28 .15q1.55 0 2.6-1.05t1.05-2.6q0-1.5-1.05-2.575-1.05-1.075-2.6-1.075t-2.6 1.05q-1.05 1.05-1.05 2.6t1.05 2.6q1.05 1.05 2.6 1.05Zm-27.95-3.05q-1.5 0-2.475-1-.975-1-.975-2.4 0-1.5.975-2.5t2.425-1q1.45 0 2.45 1 1 1 1 2.45 0 1.45-.975 2.45-.975 1-2.425 1Z"/>
</svg>