<svg xmlns="http://www.w3.org/2000/svg" viewBox="0 0 48 48" height="25" width="25" fill="aqua">
    <defs>
        <filter id="f4" x="0" y="0" width="200%" height="200%">
            <feOffset result="offOut" in="SourceGraphic" dx="15" dy="25" />
            <feGaussianBlur result="blurOut" in="matrixOut" stdDeviation="10" />
        </filter>
    </defs>
    <rect width="100" height="100" stroke="grey" stroke-width="20" fill="none" filter="url(#f4)" />
    <path d="M24.05 37.4q.7 0 1.075-.275t.375-.775q0-.4-.375-.675T24 35.4q-2.05.05-4.3-1.25t-2.85-4.65q-.1-.5-.4-.775-.3-.275-.65-.275-.55 0-.8.375t-.15.875q.75 4.1 3.6 5.925 2.85 1.825 5.6 1.775ZM24 43.9q-6.75 0-11.25-4.6t-4.5-11.6q0-4.95 3.925-10.775T24 4.35q7.9 6.75 11.825 12.575Q39.75 22.75 39.75 27.7q0 7-4.5 11.6T24 43.9Z"/>
</svg>