
<svg xmlns="http://www.w3.org/2000/svg" viewBox="0 0 48 48" height="30" width="30" fill="rgb(255,205,0)" stroke="black" stroke-width="0">
    <defs>
        <filter id="f4" x="0" y="0" width="200%" height="200%">
            <feOffset result="offOut" in="SourceGraphic" dx="15" dy="25" />
            <!-- <feColorMatrix result="matrixOut" in="offOut" type="matrix" values="0.2 0 0 0 0 0 0.2 0 0 0 0 0 0.2 0 0 0 0 0 1 0" /> -->
            <feGaussianBlur result="blurOut" in="matrixOut" stdDeviation="10" />
            <!-- <feBlend in="SourceGraphic" in2="blurOut" mode="normal" /> -->
        </filter>
    </defs>
    <rect width="100" height="100" stroke="grey" stroke-width="20" fill="none" filter="url(#f4)" />
    <path d="M8 42V21.95l-4.2 3.2-1.8-2.4 6-4.55v-5.7h3v3.4L24 6l22 16.8-1.8 2.35-4.2-3.2V42Zm3-3h11.5v-8h3v8H37V19.65l-13-9.9-13 9.9ZM8 10q0-2.3 1.625-3.9T13.5 4.5q1.05 0 1.775-.75Q16 3 16 2h3q0 2.25-1.6 3.875T13.5 7.5q-1 0-1.75.725T11 10Zm3 29h26-26Z"/>
</svg>